<?xml version="1.0" standalone="no"?>
<!DOCTYPE svg PUBLIC "-//W3C//DTD SVG 20010904//EN"
 "http://www.w3.org/TR/2001/REC-SVG-20010904/DTD/svg10.dtd">
<svg version="1.0" xmlns="http://www.w3.org/2000/svg"
 width="500.000000pt" height="500.000000pt" viewBox="0 0 500.000000 500.000000"
 preserveAspectRatio="xMidYMid meet">
<metadata>
Created by potrace 1.14, written by Peter Selinger 2001-2017
</metadata>
<g transform="translate(0.000000,500.000000) scale(0.100000,-0.100000)"
fill="#000000" stroke="none">
<path d="M2260 4639 c-637 -73 -1211 -427 -1563 -964 -338 -517 -436 -1173
-263 -1772 169 -587 566 -1059 1121 -1333 548 -272 1206 -292 1771 -55 636
267 1098 810 1263 1485 44 176 56 285 56 505 0 370 -75 676 -242 995 -332 633
-961 1061 -1675 1139 -112 13 -359 12 -468 0z m-796 -855 c133 -34 272 -118
352 -216 20 -24 39 -47 43 -51 4 -4 19 -4 32 1 75 28 77 27 89 -35 16 -84 49
-175 73 -200 67 -73 142 24 180 233 12 65 15 68 46 77 59 15 62 11 86 -108 29
-142 58 -218 96 -250 40 -33 64 -32 103 8 39 38 71 118 100 250 l21 98 50 -3
49 -3 12 -70 c27 -161 67 -247 118 -253 52 -6 89 50 126 190 10 40 22 72 27
72 4 -1 22 -4 38 -7 27 -6 34 -1 68 43 91 120 281 224 432 237 73 6 75 5 107
-97 20 -64 23 -96 23 -215 0 -127 -3 -145 -26 -200 l-25 -59 106 -106 c205
-202 312 -416 335 -670 17 -192 -51 -428 -178 -615 -56 -81 -196 -225 -287
-294 -558 -423 -1430 -488 -2086 -156 -347 176 -584 437 -680 750 -25 82 -28
105 -28 250 -1 138 2 171 22 240 61 209 202 420 384 573 l38 31 -20 46 c-30
69 -43 168 -36 259 6 77 36 208 57 247 12 24 68 25 153 3z"/>
<path d="M1842 2763 c-15 -6 -42 -56 -42 -78 0 -26 55 -75 84 -75 66 0 104 92
56 140 -19 19 -67 26 -98 13z"/>
<path d="M2991 2744 c-28 -36 -27 -79 4 -109 72 -73 178 28 114 109 -16 20
-29 26 -59 26 -30 0 -43 -6 -59 -26z"/>
<path d="M1187 2662 c-22 -24 -22 -55 1 -74 9 -9 63 -31 120 -48 90 -29 106
-31 127 -20 34 18 35 73 3 94 -27 17 -187 66 -215 66 -11 0 -27 -8 -36 -18z"/>
<path d="M3595 2648 c-49 -16 -95 -34 -102 -40 -23 -19 -16 -66 13 -84 24 -17
30 -16 117 11 128 40 147 50 147 81 0 72 -35 79 -175 32z"/>
<path d="M2430 2553 c-66 -12 -65 -44 3 -122 67 -79 83 -78 150 6 57 73 57 97
-1 113 -37 10 -105 11 -152 3z"/>
<path d="M1170 2423 c-41 -15 -51 -62 -20 -93 18 -18 33 -20 133 -20 119 0
139 6 152 47 4 17 -1 29 -19 48 -24 24 -31 25 -128 24 -57 0 -110 -3 -118 -6z"/>
<path d="M3532 2414 c-14 -10 -22 -26 -22 -44 0 -48 29 -60 150 -60 121 0 150
12 150 60 0 48 -29 60 -150 60 -79 0 -111 -4 -128 -16z"/>
<path d="M2470 2320 c-17 -17 -20 -33 -20 -98 0 -66 -4 -83 -25 -114 -71 -104
-203 -112 -340 -19 -53 36 -99 40 -115 12 -27 -52 6 -91 130 -150 69 -33 82
-36 165 -36 105 0 144 15 214 82 l44 42 48 -34 c149 -110 303 -107 452 10 62
50 74 86 39 118 -28 25 -50 21 -98 -18 -124 -102 -238 -100 -346 5 l-58 56 0
66 c0 47 -5 71 -16 82 -21 22 -50 20 -74 -4z"/>
<path d="M1295 2182 c-60 -21 -113 -45 -119 -54 -14 -23 3 -69 29 -78 23 -8
212 46 239 69 19 16 21 64 4 78 -29 22 -50 20 -153 -15z"/>
<path d="M3509 2206 c-27 -13 -37 -59 -19 -81 15 -18 189 -75 228 -75 34 0 52
16 52 46 0 45 -12 54 -114 84 -55 17 -106 33 -112 35 -6 2 -22 -2 -35 -9z"/>
</g>
</svg>
